<svg id="svg" version="1.1" xmlns="http://www.w3.org/2000/svg" xmlns:xlink="http://www.w3.org/1999/xlink" width="400" height="400" viewBox="0, 0, 400,400"><g id="svgg"><path id="path0" d="M202.810 77.291 C 202.589 77.646,200.760 80.617,198.745 83.893 C 196.731 87.169,194.614 90.604,194.040 91.527 C 193.467 92.450,191.676 95.357,190.061 97.987 C 188.445 100.617,183.820 108.129,179.782 114.681 C 175.744 121.233,171.932 127.424,171.311 128.440 C 170.691 129.455,167.065 135.344,163.254 141.527 C 148.845 164.905,144.700 171.635,143.207 174.077 C 142.360 175.461,139.569 179.991,137.005 184.142 C 134.440 188.294,132.305 191.786,132.260 191.902 C 132.196 192.069,133.048 192.114,136.288 192.114 L 140.397 192.114 149.257 177.727 C 154.129 169.813,160.907 158.809,164.318 153.272 C 178.315 130.551,192.901 106.868,193.779 105.436 C 200.402 94.630,203.129 90.279,203.251 90.319 C 203.332 90.345,207.997 97.838,213.619 106.970 C 226.725 128.258,226.747 128.293,243.372 155.285 C 251.102 167.836,259.361 181.254,261.725 185.105 L 266.023 192.105 270.092 192.110 C 272.473 192.112,274.161 192.050,274.161 191.959 C 274.161 191.874,271.054 186.758,267.257 180.592 C 260.576 169.740,241.268 138.389,236.741 131.040 C 235.518 129.056,232.104 123.507,229.152 118.708 C 226.201 113.909,223.502 109.530,223.154 108.977 C 222.806 108.423,221.732 106.686,220.766 105.117 C 218.851 102.006,214.971 95.699,213.335 93.037 C 206.596 82.072,203.350 76.809,203.261 76.704 C 203.234 76.672,203.031 76.936,202.810 77.291 M110.302 109.273 C 110.016 109.756,108.287 112.567,106.460 115.520 C 104.633 118.473,102.330 122.211,101.342 123.826 C 100.354 125.440,96.427 131.820,92.614 138.003 C 88.801 144.186,83.707 152.454,81.295 156.376 C 75.372 166.004,70.457 173.986,68.328 177.433 C 63.008 186.050,59.396 191.953,59.396 192.031 C 59.396 192.080,61.251 192.100,63.519 192.075 L 67.643 192.030 76.321 177.936 C 81.094 170.185,89.673 156.254,95.386 146.980 C 105.409 130.707,108.441 125.779,110.018 123.200 C 110.426 122.533,110.814 121.953,110.880 121.912 C 110.978 121.852,121.242 138.382,130.872 154.109 C 137.096 164.273,140.853 170.272,140.955 170.209 C 141.267 170.016,144.987 163.717,144.908 163.513 C 144.825 163.297,133.429 144.753,118.456 120.470 C 115.014 114.887,111.936 109.885,111.616 109.354 C 110.912 108.185,110.946 108.188,110.302 109.273 M288.510 119.596 C 284.728 125.752,277.084 138.178,271.524 147.209 C 265.963 156.241,261.438 163.678,261.467 163.736 C 262.303 165.411,265.532 170.275,265.692 170.100 C 265.801 169.980,267.137 167.844,268.661 165.352 C 270.186 162.861,274.550 155.763,278.361 149.581 C 282.171 143.398,285.753 137.584,286.320 136.661 C 286.887 135.738,289.113 132.114,291.268 128.607 C 293.422 125.101,295.271 122.136,295.377 122.020 C 295.526 121.856,296.823 123.844,301.121 130.829 C 304.175 135.790,311.068 146.984,316.440 155.705 C 321.811 164.425,329.049 176.184,332.524 181.834 L 338.842 192.108 342.911 192.111 C 345.196 192.113,346.980 192.048,346.980 191.964 C 346.980 191.881,342.288 184.199,336.553 174.892 C 330.818 165.585,325.733 157.328,325.252 156.544 C 323.693 153.997,321.799 150.919,315.854 141.275 C 312.641 136.061,309.548 131.040,308.982 130.117 C 301.030 117.162,295.585 108.391,295.496 108.397 C 295.436 108.401,292.292 113.440,288.510 119.596 M178.943 195.241 C 155.221 196.497,138.926 214.320,138.926 239.010 C 138.926 266.732,159.684 285.491,186.913 282.375 C 202.155 280.630,213.891 272.129,219.610 258.691 C 219.990 257.796,220.302 257.022,220.302 256.972 C 220.302 256.921,218.054 256.879,215.306 256.879 L 210.311 256.879 209.503 258.515 C 204.024 269.611,193.413 275.527,179.714 275.121 C 158.810 274.502,145.348 256.820,148.008 233.473 C 150.234 213.934,164.717 201.461,183.585 202.832 C 195.581 203.704,204.346 209.296,209.297 219.234 C 209.809 220.262,210.349 221.149,210.497 221.206 C 210.885 221.355,220.099 221.333,220.192 221.183 C 220.396 220.853,218.247 216.293,216.661 213.688 C 209.240 201.505,194.724 194.406,178.943 195.241 M272.506 195.309 C 249.476 196.845,233.511 214.737,233.511 239.010 C 233.511 268.545,257.070 287.638,286.074 281.610 C 298.910 278.942,308.930 270.820,314.105 258.888 C 314.468 258.051,314.765 257.256,314.765 257.122 C 314.765 256.915,314.029 256.879,309.825 256.879 L 304.886 256.879 303.947 258.747 C 298.592 269.398,288.567 275.174,275.444 275.166 C 255.315 275.155,241.613 259.603,242.332 237.584 C 243.018 216.588,256.173 202.789,275.503 202.788 C 288.633 202.787,298.751 208.644,303.876 219.211 C 304.323 220.134,304.770 220.984,304.868 221.099 C 305.189 221.476,314.766 221.395,314.764 221.015 C 314.759 220.119,312.047 214.787,310.262 212.164 C 302.368 200.567,288.239 194.260,272.506 195.309 M59.656 196.295 C 59.503 196.543,59.549 281.764,59.703 281.917 C 59.777 281.992,61.683 282.033,63.938 282.008 L 68.037 281.963 68.080 261.955 L 68.122 241.946 91.359 241.946 L 114.596 241.946 114.639 261.955 L 114.681 281.963 118.876 281.963 L 123.070 281.963 123.113 239.049 L 123.155 196.135 118.918 196.180 L 114.681 196.225 114.639 215.478 L 114.596 234.732 91.359 234.732 L 68.122 234.732 68.080 215.478 L 68.037 196.225 63.896 196.180 C 61.403 196.153,59.716 196.199,59.656 196.295 " stroke="none" fill="#00293f" fill-rule="evenodd"></path><path id="path1" d="M0.000 200.000 L 0.000 400.000 200.000 400.000 L 400.000 400.000 400.000 200.000 L 400.000 0.000 200.000 0.000 L 0.000 0.000 0.000 200.000 M207.227 83.012 C 209.372 86.495,211.784 90.403,212.585 91.695 C 213.387 92.987,215.993 97.215,218.376 101.091 C 220.760 104.966,224.293 110.705,226.228 113.842 C 228.162 116.980,230.439 120.680,231.286 122.064 C 232.134 123.448,236.667 130.810,241.358 138.423 C 246.050 146.036,250.769 153.700,251.846 155.453 C 253.818 158.666,264.486 176.001,267.748 181.292 C 268.715 182.861,269.675 184.409,269.883 184.732 C 270.747 186.078,274.329 191.963,274.329 192.035 C 274.329 192.079,272.454 192.114,270.164 192.114 L 265.998 192.114 265.234 190.898 C 264.813 190.229,262.938 187.190,261.067 184.144 C 257.181 177.819,257.222 177.885,250.844 167.534 C 248.229 163.289,244.301 156.909,242.116 153.356 C 239.931 149.803,235.840 143.159,233.024 138.591 C 222.098 120.863,205.928 94.609,204.636 92.497 C 203.889 91.277,203.224 90.333,203.157 90.400 C 203.040 90.517,198.022 98.651,178.140 130.956 C 172.971 139.354,168.131 147.211,167.383 148.417 C 166.635 149.622,160.285 159.943,153.272 171.353 L 140.520 192.098 136.264 192.106 L 132.008 192.114 132.254 191.737 C 132.388 191.529,136.541 184.790,141.482 176.762 C 146.423 168.733,152.259 159.258,154.451 155.705 C 156.643 152.152,159.432 147.622,160.649 145.638 C 164.043 140.105,166.820 135.598,168.711 132.550 C 170.267 130.042,175.539 121.478,182.551 110.067 C 183.997 107.714,187.810 101.523,191.024 96.309 C 197.419 85.937,199.545 82.484,201.690 78.986 C 202.468 77.718,203.154 76.680,203.215 76.679 C 203.275 76.678,205.081 79.528,207.227 83.012 M299.915 115.268 C 302.206 119.006,305.040 123.612,306.211 125.503 C 307.383 127.395,309.987 131.623,311.998 134.899 C 316.632 142.448,319.068 146.401,319.547 147.148 C 319.923 147.733,328.034 160.908,330.961 165.688 C 331.809 167.072,335.798 173.551,339.825 180.085 C 343.853 186.619,347.148 191.999,347.148 192.040 C 347.148 192.081,345.267 192.114,342.969 192.114 L 338.789 192.114 335.355 186.535 C 333.466 183.467,328.617 175.596,324.579 169.044 C 320.542 162.492,315.616 154.488,313.633 151.258 C 310.356 145.921,309.042 143.788,304.534 136.493 C 303.736 135.201,301.400 131.407,299.343 128.062 C 297.287 124.717,295.555 121.983,295.495 121.986 C 295.435 121.990,294.131 124.047,292.597 126.559 C 291.063 129.070,286.807 135.994,283.139 141.946 C 279.471 147.898,275.335 154.618,273.948 156.879 C 272.561 159.140,270.771 162.047,269.971 163.339 C 269.171 164.631,267.852 166.767,267.040 168.087 C 265.732 170.211,265.539 170.451,265.355 170.184 C 264.260 168.598,261.396 163.701,261.462 163.528 C 261.550 163.300,265.147 157.429,273.661 143.624 C 276.364 139.241,278.779 135.315,279.028 134.899 C 279.276 134.484,280.670 132.219,282.125 129.866 C 283.580 127.513,286.997 121.963,289.719 117.534 C 295.761 107.703,295.472 108.152,295.624 108.329 C 295.693 108.408,297.624 111.531,299.915 115.268 M116.574 117.296 C 119.554 122.133,123.664 128.809,125.708 132.131 C 127.752 135.453,130.568 140.021,131.966 142.282 C 139.563 154.573,145.022 163.515,145.021 163.669 C 145.019 163.835,141.217 170.094,140.973 170.333 C 140.874 170.430,139.484 168.243,135.312 161.426 C 133.292 158.126,124.534 143.896,123.994 143.037 C 123.118 141.645,120.289 137.056,115.277 128.901 C 112.937 125.094,110.978 121.981,110.923 121.983 C 110.867 121.985,109.191 124.647,107.197 127.898 C 105.203 131.149,95.734 146.531,86.155 162.081 C 76.576 177.630,68.505 190.747,68.220 191.230 L 67.701 192.107 63.445 192.111 L 59.190 192.114 59.454 191.711 C 59.599 191.490,63.824 184.638,68.843 176.485 C 79.311 159.479,93.269 136.816,103.239 120.638 C 107.021 114.501,110.265 109.231,110.448 108.927 C 110.942 108.105,110.757 107.852,116.574 117.296 M201.856 143.163 C 201.880 143.626,201.882 145.089,201.864 149.455 L 201.846 154.027 196.393 154.027 L 190.940 154.027 190.940 148.490 L 190.940 142.953 196.393 142.953 C 200.637 142.953,201.848 142.999,201.856 143.163 M215.101 148.490 L 215.101 154.027 209.564 154.027 L 204.027 154.027 204.027 148.490 L 204.027 142.953 209.564 142.953 L 215.101 142.953 215.101 148.490 M109.564 161.074 L 109.564 166.611 104.111 166.611 L 98.658 166.611 98.658 161.074 L 98.658 155.537 104.111 155.537 L 109.564 155.537 109.564 161.074 M122.819 161.074 L 122.819 166.611 117.282 166.611 L 111.745 166.611 111.745 161.074 L 111.745 155.537 117.282 155.537 L 122.819 155.537 122.819 161.074 M294.156 155.747 C 294.191 155.862,294.193 158.354,294.159 161.284 L 294.099 166.611 288.660 166.611 L 283.221 166.611 283.221 161.074 L 283.221 155.537 288.657 155.537 C 292.858 155.537,294.106 155.584,294.156 155.747 M307.383 161.076 L 307.383 166.615 301.888 166.571 L 296.393 166.527 296.348 161.032 L 296.304 155.537 301.843 155.537 L 307.383 155.537 307.383 161.076 M201.868 156.502 C 201.902 156.663,201.908 159.155,201.881 162.039 L 201.832 167.282 196.386 167.282 L 190.940 167.282 190.940 161.745 L 190.940 156.208 196.373 156.208 C 201.412 156.208,201.811 156.229,201.868 156.502 M215.101 161.745 L 215.101 167.282 209.564 167.282 L 204.027 167.282 204.027 161.745 L 204.027 156.208 209.564 156.208 L 215.101 156.208 215.101 161.745 M109.564 174.245 L 109.564 179.866 104.111 179.866 L 98.658 179.866 98.658 174.357 C 98.658 171.327,98.708 168.798,98.770 168.736 C 98.831 168.674,101.285 168.624,104.223 168.624 L 109.564 168.624 109.564 174.245 M122.847 168.791 C 122.878 168.883,122.882 171.413,122.856 174.414 L 122.810 179.870 117.319 179.826 L 111.829 179.782 111.785 174.414 C 111.760 171.462,111.777 168.951,111.821 168.835 C 111.924 168.567,122.757 168.524,122.847 168.791 M294.128 174.247 L 294.128 179.870 288.716 179.826 L 283.305 179.782 283.261 174.414 C 283.237 171.462,283.253 168.951,283.298 168.835 C 283.360 168.672,284.589 168.624,288.753 168.624 L 294.128 168.624 294.128 174.247 M307.383 174.247 L 307.383 179.870 301.888 179.826 L 296.393 179.782 296.348 174.414 C 296.324 171.462,296.340 168.951,296.385 168.835 C 296.448 168.672,297.692 168.624,301.924 168.624 L 307.383 168.624 307.383 174.247 M184.648 195.309 C 199.994 196.438,211.662 203.746,218.208 216.328 C 219.199 218.233,220.302 220.770,220.302 221.145 C 220.302 221.248,218.423 221.309,215.270 221.309 L 210.237 221.309 209.511 219.757 C 207.321 215.082,203.659 210.773,199.497 207.974 C 190.253 201.758,176.074 201.059,165.588 206.303 C 152.371 212.913,145.421 229.367,148.416 246.959 C 151.350 264.196,163.951 275.082,180.956 275.070 C 193.985 275.062,203.646 269.554,209.158 258.994 L 210.262 256.879 215.282 256.879 C 218.615 256.879,220.302 256.937,220.302 257.052 C 220.302 258.194,216.824 264.519,214.544 267.524 C 205.303 279.704,187.560 285.417,170.755 281.623 C 148.986 276.709,135.774 255.536,139.359 231.310 C 142.745 208.430,161.405 193.597,184.648 195.309 M279.195 195.306 C 293.124 196.361,303.995 202.417,310.838 212.936 C 312.260 215.121,314.933 220.496,314.933 221.170 C 314.933 221.246,312.649 221.303,309.857 221.295 L 304.782 221.282 303.648 218.988 C 299.148 209.889,290.750 204.231,279.950 203.024 C 260.889 200.894,245.697 212.666,242.886 231.742 C 239.181 256.890,254.217 276.018,276.977 275.108 C 289.403 274.611,299.009 268.758,303.904 258.699 L 304.782 256.896 309.857 256.888 C 312.649 256.883,314.933 256.921,314.933 256.973 C 314.933 258.228,311.106 265.041,308.718 268.037 C 295.150 285.058,266.690 287.831,249.078 273.847 C 238.740 265.640,233.079 252.567,233.446 237.752 C 234.097 211.457,253.593 193.369,279.195 195.306 M68.162 215.394 L 68.205 234.648 91.316 234.690 L 114.428 234.733 114.471 215.479 L 114.513 196.225 118.834 196.225 C 121.210 196.225,123.154 196.281,123.154 196.351 C 123.154 196.420,123.154 215.731,123.154 239.265 L 123.154 282.053 118.834 282.008 L 114.513 281.963 114.471 261.955 L 114.428 241.946 91.274 241.946 L 68.121 241.946 68.121 261.997 L 68.121 282.047 63.758 282.047 L 59.396 282.047 59.396 239.094 L 59.396 196.141 63.758 196.141 L 68.119 196.141 68.162 215.394 M288.047 237.044 L 288.091 243.467 286.202 243.420 L 284.312 243.372 284.268 237.165 C 284.244 233.751,284.261 230.860,284.307 230.742 C 284.369 230.580,284.842 230.537,286.197 230.573 L 288.003 230.621 288.047 237.044 M321.851 235.828 L 321.896 240.352 323.700 240.400 L 325.503 240.448 325.503 241.955 L 325.503 243.463 321.770 243.418 L 318.037 243.372 317.993 237.296 L 317.949 231.219 319.755 231.172 C 320.748 231.146,321.616 231.164,321.683 231.214 C 321.751 231.263,321.827 233.339,321.851 235.828 M330.552 235.641 C 330.562 240.953,330.355 240.436,332.470 240.436 C 334.443 240.436,334.330 240.329,334.257 242.113 L 334.202 243.463 330.482 243.418 L 326.762 243.372 326.718 237.296 L 326.674 231.219 328.479 231.172 C 329.473 231.146,330.343 231.167,330.414 231.220 C 330.485 231.272,330.547 233.262,330.552 235.641 M344.014 231.606 C 345.502 232.334,347.148 234.507,347.148 235.745 C 347.148 235.839,346.329 235.905,345.176 235.904 L 343.205 235.902 342.640 235.321 C 341.115 233.752,339.094 234.851,339.094 237.248 C 339.094 239.658,341.140 240.751,342.681 239.165 L 343.250 238.579 345.157 238.627 L 347.064 238.674 347.009 239.094 C 346.448 243.402,339.759 245.020,336.678 241.594 C 334.181 238.817,334.803 233.754,337.874 231.855 C 339.412 230.905,342.338 230.786,344.014 231.606 M258.035 231.453 C 261.127 232.544,261.578 237.241,258.705 238.431 C 258.059 238.699,258.060 238.703,259.394 241.092 C 260.788 243.589,260.840 243.456,258.465 243.456 L 256.548 243.456 256.106 242.757 C 255.863 242.372,255.577 241.862,255.470 241.624 C 255.363 241.386,255.051 240.776,254.777 240.268 L 254.279 239.346 254.195 241.359 L 254.111 243.372 252.265 243.372 L 250.419 243.372 250.375 237.290 L 250.331 231.208 253.836 231.208 C 256.481 231.208,257.511 231.268,258.035 231.453 M294.261 232.424 L 294.311 233.557 295.058 233.557 C 295.469 233.557,295.815 233.614,295.827 233.683 C 295.902 234.119,295.930 236.377,295.864 236.619 C 295.802 236.842,295.605 236.913,295.039 236.913 L 294.295 236.913 294.295 238.318 C 294.295 239.879,294.386 240.042,295.303 240.129 L 295.889 240.185 295.889 241.779 L 295.889 243.372 294.442 243.348 C 291.423 243.297,290.439 242.142,290.437 238.643 L 290.436 236.934 289.891 236.881 L 289.346 236.829 289.298 235.193 L 289.250 233.557 289.843 233.557 L 290.436 233.557 290.436 232.494 C 290.436 231.141,290.359 231.189,292.441 231.245 L 294.211 231.292 294.261 232.424 M269.011 234.134 C 270.511 235.013,271.386 236.647,271.277 238.363 L 271.225 239.178 268.247 239.224 C 265.446 239.267,265.268 239.289,265.268 239.589 C 265.268 240.312,266.090 240.655,266.705 240.190 C 267.022 239.950,271.141 239.795,271.141 240.022 C 271.141 240.365,270.217 241.818,269.723 242.252 C 267.887 243.865,264.764 243.906,262.937 242.342 C 260.815 240.525,260.869 236.366,263.039 234.578 C 264.450 233.415,267.409 233.195,269.011 234.134 M277.893 234.050 L 278.671 234.543 278.723 234.092 L 278.775 233.641 280.665 233.593 L 282.555 233.546 282.511 238.459 L 282.466 243.372 280.622 243.372 L 278.778 243.372 278.693 242.881 C 278.616 242.437,278.582 242.415,278.348 242.649 C 276.672 244.325,273.568 243.469,272.455 241.023 C 270.503 236.735,274.349 231.803,277.893 234.050 M300.951 234.564 C 301.161 235.071,301.568 236.115,301.857 236.882 C 302.146 237.650,302.425 238.235,302.477 238.183 C 302.529 238.131,302.918 237.087,303.341 235.864 L 304.111 233.641 306.166 233.594 C 307.850 233.555,308.221 233.590,308.221 233.784 C 308.221 234.010,303.354 245.449,302.499 247.232 L 302.097 248.070 300.182 248.118 C 297.741 248.179,297.794 248.321,299.168 245.395 L 300.341 242.897 299.679 241.373 C 299.315 240.535,298.446 238.537,297.747 236.933 C 296.124 233.209,296.048 233.537,298.524 233.594 L 300.571 233.641 300.951 234.564 M254.195 235.403 L 254.195 236.409 255.175 236.409 C 256.271 236.409,256.711 236.113,256.711 235.374 C 256.711 234.699,256.227 234.396,255.146 234.396 L 254.195 234.396 254.195 235.403 M265.546 236.884 C 265.116 237.359,265.195 237.416,266.275 237.416 C 267.047 237.416,267.282 237.359,267.282 237.170 C 267.282 236.588,266.005 236.377,265.546 236.884 M276.449 237.261 C 275.454 238.043,276.052 240.101,277.274 240.101 C 277.884 240.101,278.183 239.926,278.446 239.418 C 279.284 237.798,277.801 236.197,276.449 237.261 M313.426 239.975 C 313.427 240.090,312.956 241.524,312.377 243.162 L 311.326 246.140 310.007 246.140 C 308.725 246.141,308.691 246.130,308.777 245.763 C 308.826 245.556,309.026 244.291,309.222 242.953 C 309.723 239.521,309.536 239.765,311.657 239.765 C 312.956 239.765,313.424 239.821,313.426 239.975 " stroke="none" fill="#ffffff" fill-rule="evenodd"></path><path id="path2" d="M190.940 148.490 L 190.940 154.027 196.393 154.027 L 201.846 154.027 201.864 149.455 C 201.882 145.089,201.880 143.626,201.856 143.163 C 201.848 142.999,200.637 142.953,196.393 142.953 L 190.940 142.953 190.940 148.490 M204.027 148.490 L 204.027 154.027 209.564 154.027 L 215.101 154.027 215.101 148.490 L 215.101 142.953 209.564 142.953 L 204.027 142.953 204.027 148.490 M98.658 161.074 L 98.658 166.611 104.111 166.611 L 109.564 166.611 109.564 161.074 L 109.564 155.537 104.111 155.537 L 98.658 155.537 98.658 161.074 M111.745 161.074 L 111.745 166.611 117.282 166.611 L 122.819 166.611 122.819 161.074 L 122.819 155.537 117.282 155.537 L 111.745 155.537 111.745 161.074 M283.221 161.074 L 283.221 166.611 288.660 166.611 L 294.099 166.611 294.159 161.284 C 294.193 158.354,294.191 155.862,294.156 155.747 C 294.106 155.584,292.858 155.537,288.657 155.537 L 283.221 155.537 283.221 161.074 M296.348 161.032 L 296.393 166.527 301.888 166.571 L 307.383 166.615 307.383 161.076 L 307.383 155.537 301.843 155.537 L 296.304 155.537 296.348 161.032 M190.940 161.745 L 190.940 167.282 196.386 167.282 L 201.832 167.282 201.881 162.039 C 201.908 159.155,201.902 156.663,201.868 156.502 C 201.811 156.229,201.412 156.208,196.373 156.208 L 190.940 156.208 190.940 161.745 M204.027 161.745 L 204.027 167.282 209.564 167.282 L 215.101 167.282 215.101 161.745 L 215.101 156.208 209.564 156.208 L 204.027 156.208 204.027 161.745 M98.770 168.736 C 98.708 168.798,98.658 171.327,98.658 174.357 L 98.658 179.866 104.111 179.866 L 109.564 179.866 109.564 174.245 L 109.564 168.624 104.223 168.624 C 101.285 168.624,98.831 168.674,98.770 168.736 M111.821 168.835 C 111.777 168.951,111.760 171.462,111.785 174.414 L 111.829 179.782 117.319 179.826 L 122.810 179.870 122.856 174.414 C 122.882 171.413,122.878 168.883,122.847 168.791 C 122.757 168.524,111.924 168.567,111.821 168.835 M283.298 168.835 C 283.253 168.951,283.237 171.462,283.261 174.414 L 283.305 179.782 288.716 179.826 L 294.128 179.870 294.128 174.247 L 294.128 168.624 288.753 168.624 C 284.589 168.624,283.360 168.672,283.298 168.835 M296.385 168.835 C 296.340 168.951,296.324 171.462,296.348 174.414 L 296.393 179.782 301.888 179.826 L 307.383 179.870 307.383 174.247 L 307.383 168.624 301.924 168.624 C 297.692 168.624,296.448 168.672,296.385 168.835 M178.817 195.253 C 179.025 195.293,179.365 195.293,179.572 195.253 C 179.780 195.213,179.610 195.180,179.195 195.180 C 178.779 195.180,178.609 195.213,178.817 195.253 M182.173 195.253 C 182.380 195.293,182.720 195.293,182.928 195.253 C 183.135 195.213,182.966 195.180,182.550 195.180 C 182.135 195.180,181.965 195.213,182.173 195.253 M273.448 195.253 C 273.656 195.293,273.995 195.293,274.203 195.253 C 274.411 195.213,274.241 195.180,273.826 195.180 C 273.410 195.180,273.240 195.213,273.448 195.253 M276.804 195.253 C 277.011 195.293,277.351 195.293,277.559 195.253 C 277.766 195.213,277.596 195.180,277.181 195.180 C 276.766 195.180,276.596 195.213,276.804 195.253 M114.507 196.351 C 114.463 196.466,114.446 205.168,114.470 215.688 L 114.513 234.815 114.597 215.478 C 114.643 204.843,114.660 196.141,114.634 196.141 C 114.608 196.141,114.551 196.235,114.507 196.351 M59.435 197.483 C 59.435 197.806,59.469 197.938,59.512 197.777 C 59.554 197.615,59.554 197.351,59.512 197.190 C 59.469 197.028,59.435 197.160,59.435 197.483 M59.437 240.059 C 59.414 263.152,59.453 282.047,59.522 282.047 C 59.636 282.047,59.635 253.820,59.521 213.255 C 59.497 204.904,59.460 216.965,59.437 240.059 M179.908 202.809 C 180.438 202.842,181.307 202.842,181.837 202.809 C 182.368 202.775,181.934 202.748,180.872 202.748 C 179.811 202.748,179.377 202.775,179.908 202.809 M274.539 202.809 C 275.069 202.842,275.938 202.842,276.468 202.809 C 276.999 202.775,276.565 202.748,275.503 202.748 C 274.442 202.748,274.008 202.775,274.539 202.809 M202.852 210.654 C 203.165 210.977,203.459 211.242,203.505 211.242 C 203.552 211.242,203.333 210.977,203.020 210.654 C 202.707 210.331,202.413 210.067,202.367 210.067 C 202.321 210.067,202.539 210.331,202.852 210.654 M298.238 211.409 C 298.786 211.963,299.272 212.416,299.318 212.416 C 299.364 212.416,298.954 211.963,298.406 211.409 C 297.858 210.856,297.372 210.403,297.326 210.403 C 297.280 210.403,297.690 210.856,298.238 211.409 M204.195 211.997 C 204.508 212.320,204.802 212.584,204.848 212.584 C 204.894 212.584,204.675 212.320,204.362 211.997 C 204.049 211.674,203.755 211.409,203.709 211.409 C 203.663 211.409,203.882 211.674,204.195 211.997 M284.307 230.742 C 284.261 230.860,284.244 233.751,284.268 237.165 L 284.312 243.372 286.202 243.420 L 288.091 243.467 288.047 237.044 L 288.003 230.621 286.197 230.573 C 284.842 230.537,284.369 230.580,284.307 230.742 M319.755 231.172 L 317.949 231.219 317.993 237.296 L 318.037 243.372 321.770 243.418 L 325.503 243.463 325.503 241.955 L 325.503 240.448 323.700 240.400 L 321.896 240.352 321.851 235.828 C 321.827 233.339,321.751 231.263,321.683 231.214 C 321.616 231.164,320.748 231.146,319.755 231.172 M328.479 231.172 L 326.674 231.219 326.718 237.296 L 326.762 243.372 330.482 243.418 L 334.202 243.463 334.257 242.113 C 334.330 240.329,334.443 240.436,332.470 240.436 C 330.355 240.436,330.562 240.953,330.552 235.641 C 330.547 233.262,330.485 231.272,330.414 231.220 C 330.343 231.167,329.473 231.146,328.479 231.172 M339.253 231.258 C 335.169 232.417,333.706 238.289,336.678 241.594 C 339.759 245.020,346.448 243.402,347.009 239.094 L 347.064 238.674 345.157 238.627 L 343.250 238.579 342.681 239.165 C 341.140 240.751,339.094 239.658,339.094 237.248 C 339.094 234.851,341.115 233.752,342.640 235.321 L 343.205 235.902 345.176 235.904 C 346.329 235.905,347.148 235.839,347.148 235.745 C 347.148 232.780,342.733 230.271,339.253 231.258 M250.375 237.290 L 250.419 243.372 252.265 243.372 L 254.111 243.372 254.195 241.359 L 254.279 239.346 254.777 240.268 C 255.051 240.776,255.363 241.386,255.470 241.624 C 255.577 241.862,255.863 242.372,256.106 242.757 L 256.548 243.456 258.465 243.456 C 260.840 243.456,260.788 243.589,259.394 241.092 C 258.060 238.703,258.059 238.699,258.705 238.431 C 260.911 237.517,261.281 233.644,259.306 232.138 C 258.219 231.308,257.629 231.208,253.836 231.208 L 250.331 231.208 250.375 237.290 M290.553 231.315 C 290.489 231.379,290.436 231.910,290.436 232.494 L 290.436 233.557 289.843 233.557 L 289.250 233.557 289.298 235.193 L 289.346 236.829 289.891 236.881 L 290.436 236.934 290.437 238.643 C 290.439 242.142,291.423 243.297,294.442 243.348 L 295.889 243.372 295.889 241.779 L 295.889 240.185 295.303 240.129 C 294.386 240.042,294.295 239.879,294.295 238.318 L 294.295 236.913 295.039 236.913 C 295.605 236.913,295.802 236.842,295.864 236.619 C 295.930 236.377,295.902 234.119,295.827 233.683 C 295.815 233.614,295.469 233.557,295.058 233.557 L 294.311 233.557 294.261 232.424 L 294.211 231.292 292.441 231.245 C 291.467 231.219,290.618 231.250,290.553 231.315 M264.339 233.813 C 260.306 235.309,260.399 241.866,264.473 243.219 C 265.525 243.569,267.778 243.483,268.580 243.063 C 269.676 242.489,271.141 240.750,271.141 240.022 C 271.141 239.795,267.022 239.950,266.705 240.190 C 266.090 240.655,265.268 240.312,265.268 239.589 C 265.268 239.289,265.446 239.267,268.247 239.224 L 271.225 239.178 271.277 238.363 C 271.492 234.974,267.778 232.538,264.339 233.813 M274.413 233.875 C 271.178 235.373,271.178 241.641,274.413 243.138 C 275.667 243.719,277.507 243.490,278.348 242.649 C 278.582 242.415,278.616 242.437,278.693 242.881 L 278.778 243.372 280.622 243.372 L 282.466 243.372 282.511 238.459 L 282.555 233.546 280.665 233.593 L 278.775 233.641 278.723 234.092 L 278.671 234.543 277.893 234.050 C 276.941 233.446,275.496 233.374,274.413 233.875 M296.477 233.782 C 296.477 233.912,297.048 235.330,297.747 236.933 C 298.446 238.537,299.315 240.535,299.679 241.373 L 300.341 242.897 299.168 245.395 C 297.794 248.321,297.741 248.179,300.182 248.118 L 302.097 248.070 302.499 247.232 C 303.354 245.449,308.221 234.010,308.221 233.784 C 308.221 233.590,307.850 233.555,306.166 233.594 L 304.111 233.641 303.341 235.864 C 302.918 237.087,302.529 238.131,302.477 238.183 C 302.425 238.235,302.146 237.650,301.857 236.882 C 301.568 236.115,301.161 235.071,300.951 234.564 L 300.571 233.641 298.524 233.594 C 296.856 233.555,296.477 233.590,296.477 233.782 M256.405 234.674 C 257.256 235.444,256.572 236.409,255.175 236.409 L 254.195 236.409 254.195 235.403 L 254.195 234.396 255.146 234.396 C 255.796 234.396,256.195 234.484,256.405 234.674 M233.437 236.493 C 233.439 236.955,233.471 237.124,233.510 236.868 C 233.548 236.613,233.547 236.236,233.507 236.030 C 233.468 235.823,233.436 236.032,233.437 236.493 M242.321 236.577 C 242.321 236.900,242.355 237.032,242.398 236.871 C 242.440 236.709,242.440 236.445,242.398 236.284 C 242.355 236.122,242.321 236.254,242.321 236.577 M138.826 239.010 C 138.827 240.487,138.852 241.068,138.883 240.302 C 138.915 239.537,138.914 238.329,138.883 237.618 C 138.852 236.907,138.826 237.534,138.826 239.010 M266.957 236.751 C 267.644 237.118,267.338 237.416,266.275 237.416 C 265.195 237.416,265.116 237.359,265.546 236.884 C 265.855 236.543,266.462 236.486,266.957 236.751 M277.929 237.017 C 278.282 237.153,278.691 237.952,278.691 238.507 C 278.691 239.869,277.464 240.551,276.449 239.753 C 275.148 238.730,276.394 236.428,277.929 237.017 M147.715 239.010 C 147.715 240.117,147.743 240.549,147.775 239.968 C 147.808 239.388,147.808 238.482,147.775 237.955 C 147.742 237.428,147.715 237.903,147.715 239.010 M309.734 240.143 C 309.648 240.350,309.417 241.615,309.222 242.953 C 309.026 244.291,308.826 245.556,308.777 245.763 C 308.691 246.130,308.725 246.141,310.007 246.140 L 311.326 246.140 312.377 243.162 C 312.956 241.524,313.427 240.090,313.426 239.975 C 313.420 239.537,309.921 239.696,309.734 240.143 M233.440 241.611 C 233.440 242.118,233.471 242.326,233.509 242.072 C 233.548 241.818,233.548 241.403,233.509 241.149 C 233.471 240.896,233.440 241.103,233.440 241.611 M242.324 241.359 C 242.326 241.728,242.360 241.859,242.401 241.651 C 242.441 241.442,242.439 241.140,242.397 240.980 C 242.355 240.819,242.322 240.990,242.324 241.359 M114.470 261.861 C 114.448 272.860,114.486 281.894,114.555 281.937 C 114.669 282.008,114.668 268.108,114.553 249.077 C 114.529 245.109,114.492 250.862,114.470 261.861 M251.510 265.185 C 251.823 265.508,252.117 265.772,252.163 265.772 C 252.209 265.772,251.991 265.508,251.678 265.185 C 251.365 264.862,251.071 264.597,251.025 264.597 C 250.979 264.597,251.197 264.862,251.510 265.185 M157.718 266.023 C 158.219 266.531,158.667 266.946,158.713 266.946 C 158.760 266.946,158.387 266.531,157.886 266.023 C 157.385 265.516,156.937 265.101,156.891 265.101 C 156.845 265.101,157.217 265.516,157.718 266.023 M203.686 266.569 L 202.768 267.534 203.733 266.616 C 204.264 266.112,204.698 265.678,204.698 265.652 C 204.698 265.527,204.538 265.672,203.686 266.569 M298.313 266.569 L 297.735 267.198 298.364 266.620 C 298.710 266.302,298.993 266.019,298.993 265.991 C 298.993 265.862,298.851 265.983,298.313 266.569 M252.685 266.328 C 252.685 266.357,252.930 266.602,253.230 266.873 L 253.775 267.366 253.282 266.820 C 252.823 266.312,252.685 266.198,252.685 266.328 M151.174 270.889 C 151.955 271.674,152.631 272.315,152.677 272.315 C 152.723 272.315,152.123 271.674,151.342 270.889 C 150.562 270.105,149.886 269.463,149.840 269.463 C 149.793 269.463,150.394 270.105,151.174 270.889 M306.785 270.176 L 306.292 270.721 306.837 270.229 C 307.346 269.769,307.460 269.631,307.330 269.631 C 307.301 269.631,307.056 269.876,306.785 270.176 M304.604 272.357 L 304.111 272.903 304.656 272.410 C 305.164 271.951,305.278 271.812,305.149 271.812 C 305.120 271.812,304.875 272.057,304.604 272.357 M278.398 282.666 C 278.559 282.708,278.823 282.708,278.985 282.666 C 279.146 282.624,279.014 282.589,278.691 282.589 C 278.368 282.589,278.236 282.624,278.398 282.666 " stroke="none" fill="#faad40" fill-rule="evenodd"></path></g></svg>